# MagicaVoxel @ Ephtracy

# group
g my_carrot

# material
mtllib my_carrot.mtl
usemtl palette

# normals
vn -1 0 0
vn 1 0 0
vn 0 0 1
vn 0 0 -1
vn 0 -1 0
vn 0 1 0

# texcoords
vt 0.0917969 0.5
vt 0.583984 0.5

# verts
v -3.5 6 3.5
v -3.5 6 -3.5
v -3.5 10 3.5
v -3.5 10 -3.5
v -2.5 2 2.5
v -2.5 2 -2.5
v -2.5 6 2.5
v -2.5 6 -2.5
v -2.5 10 2.5
v -2.5 10 -2.5
v -2.5 12 2.5
v -2.5 12 -2.5
v -2.5 13 1.5
v -2.5 13 -1.5
v -2.5 14 1.5
v -2.5 14 -1.5
v -1.5 0 1.5
v -1.5 0 -1.5
v -1.5 2 1.5
v -1.5 2 -1.5
v -1.5 12 1.5
v -1.5 12 -1.5
v -1.5 13 2.5
v -1.5 13 1.5
v -1.5 13 -1.5
v -1.5 13 -2.5
v -1.5 14 2.5
v -1.5 14 1.5
v -1.5 14 -1.5
v -1.5 14 -2.5
v -1.5 15 1.5
v -1.5 15 -1.5
v 1.5 0 1.5
v 1.5 0 -1.5
v 1.5 2 1.5
v 1.5 2 -1.5
v 1.5 12 1.5
v 1.5 12 -1.5
v 1.5 13 2.5
v 1.5 13 1.5
v 1.5 13 -1.5
v 1.5 13 -2.5
v 1.5 14 2.5
v 1.5 14 1.5
v 1.5 14 -1.5
v 1.5 14 -2.5
v 1.5 15 1.5
v 1.5 15 -1.5
v 2.5 2 2.5
v 2.5 2 -2.5
v 2.5 6 2.5
v 2.5 6 -2.5
v 2.5 10 2.5
v 2.5 10 -2.5
v 2.5 12 2.5
v 2.5 12 -2.5
v 2.5 13 1.5
v 2.5 13 -1.5
v 2.5 14 1.5
v 2.5 14 -1.5
v 3.5 6 3.5
v 3.5 6 -3.5
v 3.5 10 3.5
v 3.5 10 -3.5
v -3.5 6 3.5
v -3.5 10 3.5
v 3.5 6 3.5
v 3.5 10 3.5
v -2.5 2 2.5
v -2.5 6 2.5
v -2.5 10 2.5
v -2.5 12 2.5
v -1.5 13 2.5
v -1.5 14 2.5
v 1.5 13 2.5
v 1.5 14 2.5
v 2.5 2 2.5
v 2.5 6 2.5
v 2.5 10 2.5
v 2.5 12 2.5
v -2.5 13 1.5
v -2.5 14 1.5
v -1.5 0 1.5
v -1.5 2 1.5
v -1.5 12 1.5
v -1.5 13 1.5
v -1.5 14 1.5
v -1.5 15 1.5
v 1.5 0 1.5
v 1.5 2 1.5
v 1.5 12 1.5
v 1.5 13 1.5
v 1.5 14 1.5
v 1.5 15 1.5
v 2.5 13 1.5
v 2.5 14 1.5
v -2.5 13 -1.5
v -2.5 14 -1.5
v -1.5 0 -1.5
v -1.5 2 -1.5
v -1.5 12 -1.5
v -1.5 13 -1.5
v -1.5 14 -1.5
v -1.5 15 -1.5
v 1.5 0 -1.5
v 1.5 2 -1.5
v 1.5 12 -1.5
v 1.5 13 -1.5
v 1.5 14 -1.5
v 1.5 15 -1.5
v 2.5 13 -1.5
v 2.5 14 -1.5
v -2.5 2 -2.5
v -2.5 6 -2.5
v -2.5 10 -2.5
v -2.5 12 -2.5
v -1.5 13 -2.5
v -1.5 14 -2.5
v 1.5 13 -2.5
v 1.5 14 -2.5
v 2.5 2 -2.5
v 2.5 6 -2.5
v 2.5 10 -2.5
v 2.5 12 -2.5
v -3.5 6 -3.5
v -3.5 10 -3.5
v 3.5 6 -3.5
v 3.5 10 -3.5
v -1.5 0 1.5
v 1.5 0 1.5
v -1.5 0 -1.5
v 1.5 0 -1.5
v -2.5 2 2.5
v 2.5 2 2.5
v -1.5 2 1.5
v 1.5 2 1.5
v -1.5 2 -1.5
v 1.5 2 -1.5
v -2.5 2 -2.5
v 2.5 2 -2.5
v -3.5 6 3.5
v 3.5 6 3.5
v -2.5 6 2.5
v 2.5 6 2.5
v -2.5 6 -2.5
v 2.5 6 -2.5
v -3.5 6 -3.5
v 3.5 6 -3.5
v -1.5 13 2.5
v 1.5 13 2.5
v -2.5 13 1.5
v -1.5 13 1.5
v 1.5 13 1.5
v 2.5 13 1.5
v -2.5 13 -1.5
v -1.5 13 -1.5
v 1.5 13 -1.5
v 2.5 13 -1.5
v -1.5 13 -2.5
v 1.5 13 -2.5
v -3.5 10 3.5
v 3.5 10 3.5
v -2.5 10 2.5
v 2.5 10 2.5
v -2.5 10 -2.5
v 2.5 10 -2.5
v -3.5 10 -3.5
v 3.5 10 -3.5
v -2.5 12 2.5
v 2.5 12 2.5
v -1.5 12 1.5
v 1.5 12 1.5
v -1.5 12 -1.5
v 1.5 12 -1.5
v -2.5 12 -2.5
v 2.5 12 -2.5
v -1.5 14 2.5
v 1.5 14 2.5
v -2.5 14 1.5
v -1.5 14 1.5
v 1.5 14 1.5
v 2.5 14 1.5
v -2.5 14 -1.5
v -1.5 14 -1.5
v 1.5 14 -1.5
v 2.5 14 -1.5
v -1.5 14 -2.5
v 1.5 14 -2.5
v -1.5 15 1.5
v 1.5 15 1.5
v -1.5 15 -1.5
v 1.5 15 -1.5

# faces
f 3/1/1 2/1/1 1/1/1
f 4/1/1 2/1/1 3/1/1
f 7/1/1 6/1/1 5/1/1
f 8/1/1 6/1/1 7/1/1
f 11/1/1 10/1/1 9/1/1
f 12/1/1 10/1/1 11/1/1
f 15/2/1 14/2/1 13/2/1
f 16/2/1 14/2/1 15/2/1
f 19/1/1 18/1/1 17/1/1
f 20/1/1 18/1/1 19/1/1
f 24/1/1 22/1/1 21/1/1
f 25/1/1 22/1/1 24/1/1
f 27/2/1 24/2/1 23/2/1
f 28/2/1 24/2/1 27/2/1
f 29/2/1 26/2/1 25/2/1
f 30/2/1 26/2/1 29/2/1
f 31/2/1 29/2/1 28/2/1
f 32/2/1 29/2/1 31/2/1
f 33/1/2 34/1/2 35/1/2
f 35/1/2 34/1/2 36/1/2
f 37/1/2 38/1/2 40/1/2
f 40/1/2 38/1/2 41/1/2
f 39/2/2 40/2/2 43/2/2
f 43/2/2 40/2/2 44/2/2
f 41/2/2 42/2/2 45/2/2
f 45/2/2 42/2/2 46/2/2
f 44/2/2 45/2/2 47/2/2
f 47/2/2 45/2/2 48/2/2
f 49/1/2 50/1/2 51/1/2
f 51/1/2 50/1/2 52/1/2
f 53/1/2 54/1/2 55/1/2
f 55/1/2 54/1/2 56/1/2
f 57/2/2 58/2/2 59/2/2
f 59/2/2 58/2/2 60/2/2
f 61/1/2 62/1/2 63/1/2
f 63/1/2 62/1/2 64/1/2
f 67/1/3 66/1/3 65/1/3
f 68/1/3 66/1/3 67/1/3
f 75/2/3 74/2/3 73/2/3
f 76/2/3 74/2/3 75/2/3
f 77/1/3 70/1/3 69/1/3
f 78/1/3 70/1/3 77/1/3
f 79/1/3 72/1/3 71/1/3
f 80/1/3 72/1/3 79/1/3
f 86/2/3 82/2/3 81/2/3
f 87/2/3 82/2/3 86/2/3
f 89/1/3 84/1/3 83/1/3
f 90/1/3 84/1/3 89/1/3
f 91/1/3 86/1/3 85/1/3
f 92/1/3 86/1/3 91/1/3
f 93/2/3 88/2/3 87/2/3
f 94/2/3 88/2/3 93/2/3
f 95/2/3 93/2/3 92/2/3
f 96/2/3 93/2/3 95/2/3
f 97/2/4 98/2/4 102/2/4
f 102/2/4 98/2/4 103/2/4
f 99/1/4 100/1/4 105/1/4
f 105/1/4 100/1/4 106/1/4
f 101/1/4 102/1/4 107/1/4
f 107/1/4 102/1/4 108/1/4
f 103/2/4 104/2/4 109/2/4
f 109/2/4 104/2/4 110/2/4
f 108/2/4 109/2/4 111/2/4
f 111/2/4 109/2/4 112/2/4
f 117/2/4 118/2/4 119/2/4
f 119/2/4 118/2/4 120/2/4
f 113/1/4 114/1/4 121/1/4
f 121/1/4 114/1/4 122/1/4
f 115/1/4 116/1/4 123/1/4
f 123/1/4 116/1/4 124/1/4
f 125/1/4 126/1/4 127/1/4
f 127/1/4 126/1/4 128/1/4
f 131/1/5 130/1/5 129/1/5
f 132/1/5 130/1/5 131/1/5
f 135/1/5 134/1/5 133/1/5
f 136/1/5 134/1/5 135/1/5
f 137/1/5 135/1/5 133/1/5
f 138/1/5 134/1/5 136/1/5
f 139/1/5 137/1/5 133/1/5
f 139/1/5 138/1/5 137/1/5
f 140/1/5 134/1/5 138/1/5
f 140/1/5 138/1/5 139/1/5
f 143/1/5 142/1/5 141/1/5
f 144/1/5 142/1/5 143/1/5
f 145/1/5 143/1/5 141/1/5
f 146/1/5 142/1/5 144/1/5
f 147/1/5 145/1/5 141/1/5
f 147/1/5 146/1/5 145/1/5
f 148/1/5 142/1/5 146/1/5
f 148/1/5 146/1/5 147/1/5
f 152/2/5 150/2/5 149/2/5
f 153/2/5 150/2/5 152/2/5
f 155/2/5 152/2/5 151/2/5
f 156/2/5 152/2/5 155/2/5
f 157/2/5 154/2/5 153/2/5
f 158/2/5 154/2/5 157/2/5
f 159/2/5 157/2/5 156/2/5
f 160/2/5 157/2/5 159/2/5
f 161/1/6 162/1/6 163/1/6
f 163/1/6 162/1/6 164/1/6
f 161/1/6 163/1/6 165/1/6
f 164/1/6 162/1/6 166/1/6
f 161/1/6 165/1/6 167/1/6
f 165/1/6 166/1/6 167/1/6
f 166/1/6 162/1/6 168/1/6
f 167/1/6 166/1/6 168/1/6
f 169/1/6 170/1/6 171/1/6
f 171/1/6 170/1/6 172/1/6
f 169/1/6 171/1/6 173/1/6
f 172/1/6 170/1/6 174/1/6
f 169/1/6 173/1/6 175/1/6
f 173/1/6 174/1/6 175/1/6
f 174/1/6 170/1/6 176/1/6
f 175/1/6 174/1/6 176/1/6
f 177/2/6 178/2/6 180/2/6
f 180/2/6 178/2/6 181/2/6
f 179/2/6 180/2/6 183/2/6
f 183/2/6 180/2/6 184/2/6
f 181/2/6 182/2/6 185/2/6
f 185/2/6 182/2/6 186/2/6
f 184/2/6 185/2/6 187/2/6
f 187/2/6 185/2/6 188/2/6
f 189/2/6 190/2/6 191/2/6
f 191/2/6 190/2/6 192/2/6
